<svg xmlns="http://www.w3.org/2000/svg" width="60" height="52" viewBox="0 0 60 52"><path fill="#fff" d="m0 0h60v52h-60z"/><path fill="none" stroke="gray" d="m12 40-9 9"/><path fill="gray" d="m11 40.0062h46v.9874h-46z"/><path fill="gray" d="m11 3h1v38h-1z"/><path fill="#4d82b8" d="m10 10v15l19.875-6 18.125 12v-21z"/><path fill="#eac282" d="m10 25 19.87526-6 18.12474 12v15h-38z"/><g fill-rule="evenodd"><path fill="#4d82b8" d="m48 10h-38l4-3h37z" opacity=".7"/><path fill="#4d82b8" d="m48 10v21l3-3v-21z" opacity=".8"/><path fill="#eac282" d="m48 31v15l3-3v-15z" opacity=".8"/></g><g fill="#fff"><path d="m40 11.49992a2 2 0 0 0 -2 2 2 2 0 0 0 2 2 2 2 0 0 0 2-2 2 2 0 0 0 -2-2zm0 1a1 1 0 0 1 1 1 1 1 0 0 1 -1 1 1 1 0 0 1 -1-1 1 1 0 0 1 1-1z"/><path d="m44 15.49992a2 2 0 0 0 -2 2 2 2 0 0 0 2 2 2 2 0 0 0 2-2 2 2 0 0 0 -2-2zm0 1a1 1 0 0 1 1 1 1 1 0 0 1 -1 1 1 1 0 0 1 -1-1 1 1 0 0 1 1-1z"/><path fill-rule="evenodd" d="m44.59961 11.20022-6 8 .80078.5996 6-8z"/></g></svg>