<svg xmlns="http://www.w3.org/2000/svg" width="60" height="52" viewBox="0 0 60 52"><path fill="#fff" d="m0 0h60v52h-60z"/><path fill="none" stroke="gray" d="m12 40-9 9"/><path fill="gray" d="m11 40.0062h46v.9874h-46z"/><path fill="gray" d="m11 3h1v38h-1z"/><path fill="#4d82b8" d="m10 22v3l19.875-6 18.125 12v-9l-19-12z"/><path fill="#eac282" d="m10 25 19.875261-6 18.124739 12v15h-38z"/><g fill-rule="evenodd"><path fill="#4d82b8" d="m29 10-19 12 4-3 19-12z" opacity=".7"/><path fill="#4d82b8" d="m48 22v9l3-3v-9z" opacity=".8"/><path fill="#eac282" d="m48 31v15l3-3v-15z" opacity=".8"/><path fill="#4d82b8" d="m48 22-19-12 4-3 18 12z" opacity=".9"/></g></svg>