<svg xmlns="http://www.w3.org/2000/svg" width="60" height="52" viewBox="0 0 60 52"><path fill="#fff" d="m0 0h60v52h-60z"/><path fill="none" stroke="gray" d="m14 37-12 12"/><path fill="gray" d="m13 37h46v.9874h-46z"/><path fill="gray" d="m13 2h1v36h-1z"/><g fill="#4d82b8"><path fill-rule="evenodd" d="m33 22-20-12 3-3 20 12z" opacity=".9"/><path fill-rule="evenodd" d="m51 13v30l3-3v-30z" opacity=".8"/><path d="m13 10 20 12 18-9v30h-38z"/></g><path fill="#eac282" fill-rule="evenodd" d="m46 22v25l3-3v-25z" opacity=".8"/><path fill="#4d82b8" fill-rule="evenodd" d="m51 13-18 9 3-3 18-9z" opacity=".7"/><g fill="#eac282"><path fill-rule="evenodd" d="m28 32-20-7 3-3 20 7z" opacity=".9"/><path d="m8 25 20 7 18-10v25h-38z"/><path fill-rule="evenodd" d="m46 22-18 10 3-3 18-10z" opacity=".7"/></g></svg>