<svg xmlns="http://www.w3.org/2000/svg" width="60" height="52" viewBox="0 0 60 52"><path fill="#fff" d="m0-.0001h60v52h-60z"/><path fill="#fff" d="m0-.0001h60v52h-60z"/><path fill="none" stroke="gray" d="m14 37-12 12"/><path fill="gray" d="m13 37h46v.9874h-46z"/><path fill="gray" d="m13 2h1v36h-1z"/><path fill="#4d82b8" d="m41 29v12h-33v-12z"/><path fill="#eac282" d="m25 33v12h-21v-12z"/><path fill="#4d82b8" d="m35 11v12h-27v-12z"/><path fill="#4d82b8" fill-rule="evenodd" d="m41 29h-33l3-3h33z" opacity=".7"/><path fill="#eac282" d="m13 15v12h-9v-12z"/><g fill-rule="evenodd"><path fill="#eac282" d="m25 33h-21l3-3h21z" opacity=".7"/><path fill="#4d82b8" d="m41 29v12l3-3v-12z" opacity=".8"/><g fill="#eac282"><path d="m25 33v12l3-3v-12z" opacity=".8"/><path d="m13 15h-9l3-3h9z" opacity=".7"/><path d="m13 15v12l3-3v-12z" opacity=".8"/></g><g fill="#4d82b8"><path d="m35 11h-27l3-3h27z" opacity=".7"/><path d="m35 11v12l3-3v-12z" opacity=".8"/></g></g></svg>