<svg xmlns="http://www.w3.org/2000/svg" width="60" height="52" viewBox="0 0 60 52"><path fill="#fff" d="m0 0h60v52h-60z"/><path fill="gray" fill-rule="evenodd" d="m11.646484 39.6456-8.9999996 9 .7070312.707 9.0000004-9z"/><path fill="#4d4d4d" d="m11 40.0062h46v.9874h-46z"/><path fill="#4d4d4d" d="m9 3h1v38h-1z"/><path fill="#eac282" fill-rule="evenodd" d="m20 8h-15l3-3h15z" opacity=".8"/><g fill="#4d82b8"><path d="m29 16v8h-24v-8z"/><g fill-rule="evenodd"><path d="m41 37h-9l3-3h9z" opacity=".8"/><path d="m29 16v8l3-3v-8z" opacity=".9"/></g></g><path fill="#eac282" d="m20 8v8h-15v-8z"/><path fill="#4d82b8" d="m41 37v8h-36v-8z"/><path fill="#4d82b8" fill-rule="evenodd" d="m41 37v8l3-3v-8z" opacity=".9"/><path fill="#eac282" d="m35 29v8h-30v-8z"/><g fill-rule="evenodd"><g fill="#eac282"><path d="m20 8v8l3-3v-8z" opacity=".9"/><path d="m35 29v8l3-3v-8z" opacity=".9"/><path d="m35 29h-30l3-3h30z" opacity=".8"/></g><path fill="#4d82b8" d="m29 16h-9l3-3h9z" opacity=".8"/></g></svg>