<svg xmlns="http://www.w3.org/2000/svg" width="60" height="52" viewBox="0 0 60 52"><path fill="#fff" d="m0 0h60v52h-60z"/><path fill="none" stroke="gray" d="m12 40-9 9"/><path fill="gray" d="m11 40.0062h46v.9874h-46z"/><path fill="gray" d="m11 1h1v40h-1z"/><path fill="#eac282" fill-rule="evenodd" d="m31 9h-26l3-3h26z" opacity=".7"/><path fill="#eac282" d="m31 9v15h-26v-15z"/><path fill="#4d82b8" d="m47 29v16h-33v-16z"/><path fill="#eac282" fill-rule="evenodd" d="m14 29h-9l3-3h9z" opacity=".7"/><path fill="#4d82b8" fill-rule="evenodd" d="m47 29v16l3-3v-16z" opacity=".8"/><path fill="#eac282" d="m14 29v16h-9v-16z"/><g fill="#4d82b8"><path fill-rule="evenodd" d="m47 9v15l3-3v-15z" opacity=".8"/><path d="m47 9v15h-16v-15z"/><g fill-rule="evenodd"><path d="m47 9h-16l3-3h16z" opacity=".7"/><path d="m47 29h-33l3-3h33z" opacity=".7"/></g></g><g fill="#fff"><path d="m39 12.4999a2 2 0 0 0 -2 2 2 2 0 0 0 2 2 2 2 0 0 0 2-2 2 2 0 0 0 -2-2zm0 1a1 1 0 0 1 1 1 1 1 0 0 1 -1 1 1 1 0 0 1 -1-1 1 1 0 0 1 1-1z"/><path d="m43 16.4999a2 2 0 0 0 -2 2 2 2 0 0 0 2 2 2 2 0 0 0 2-2 2 2 0 0 0 -2-2zm0 1a1 1 0 0 1 1 1 1 1 0 0 1 -1 1 1 1 0 0 1 -1-1 1 1 0 0 1 1-1z"/><path fill-rule="evenodd" d="m43.59961 12.2002-6 8 .80078.5996 6-8z"/></g></svg>