<svg xmlns="http://www.w3.org/2000/svg" width="60" height="52" viewBox="0 0 60 52"><path fill="#fff" d="m0 0h60v52h-60z"/><path fill="none" stroke="gray" d="m12 40-9 9"/><path fill="gray" d="m11 40.0062h46v.9874h-46z"/><path fill="gray" d="m11 1h1v40h-1z"/><path fill="#eac282" fill-rule="evenodd" d="m14 10h-9l3-3h9z" opacity=".7"/><path fill="#eac282" d="m31 30v15h-26v-15z"/><path fill="#4d82b8" d="m47 30v15h-16v-15z"/><path fill="#eac282" fill-rule="evenodd" d="m31 30h-26l3-3h26z" opacity=".7"/><path fill="#4d82b8" fill-rule="evenodd" d="m47 30v15l3-3v-15z" opacity=".8"/><path fill="#eac282" d="m14 10v15h-9v-15z"/><g fill="#4d82b8"><path fill-rule="evenodd" d="m30 10v15l3-3v-15z" opacity=".8"/><path d="m30 10v15h-16v-15z"/><g fill-rule="evenodd"><path d="m30 10h-16l3-3h16z" opacity=".7"/><path d="m47 30h-16l3-3h16z" opacity=".7"/></g></g></svg>