<svg xmlns="http://www.w3.org/2000/svg" width="60" height="52" viewBox="0 0 60 52"><path fill="#fff" d="m0-.00002h60v52h-60z"/><path fill="none" stroke="gray" d="m12 40-9 9"/><path fill="gray" d="m11 40.0062h46v.9874h-46z"/><path fill="gray" d="m11 3h1v38h-1z"/><path fill="#eac282" d="m10 18h8v27h-8z"/><path fill="#eac282" d="m32 15h8v30h-8z"/><path fill="#4d82b8" d="m40 24h8v21h-8z"/><path fill="#eac282" fill-rule="evenodd" d="m18 18h-8l3-3h8z" opacity=".7"/><path fill="#4d82b8" d="m18 9h8v36h-8z"/><g fill-rule="evenodd"><path fill="#eac282" d="m40 15h-8l3-3h8z" opacity=".7"/><g fill="#4d82b8"><path d="m26 9h-8l3-3h8z" opacity=".7"/><path d="m48 24h-8l3-3h8z" opacity=".7"/><path d="m26 9v36l3-3v-36z" opacity=".8"/><path d="m48 24v21l3-3v-21z" opacity=".8"/></g><path fill="#eac282" d="m40 15v9l3-3v-9z" opacity=".8"/></g></svg>