<svg xmlns="http://www.w3.org/2000/svg" width="60" height="52" viewBox="0 0 60 52"><path fill="#fff" d="m0 0h60v52h-60z"/><g fill="gray"><path fill-rule="evenodd" d="m11.646484 39.6456-8.9999996 9 .7070312.707 9.0000004-9z"/><path d="m11 40.0062h46v.9874h-46z"/><path d="m9 3h1v38h-1z"/></g><path fill="#4d82b8" d="m7 15c-1.0974258-.12542-2 1.790861-2 4s.8954305 4 2 4l35-4z"/><path fill="#eac282" d="m7 7c-1.0808776-.2276-2 1.7909-2 4s.8954305 4 2 4l19-4z"/><path fill="#4d82b8" d="m7 35c-1.0990877-.1099-2 1.7909-2 4s.8954305 4 2 4l40-4z"/><path fill="#eac282" d="m7 27c-1.093468-.1562-2 1.7909-2 4s.8954305 4 2 4l28-4z"/></svg>