<svg xmlns="http://www.w3.org/2000/svg" width="60" height="52" viewBox="0 0 60 52"><path fill="#fff" d="m0 0h60v52h-60z"/><path fill="gray" d="m11 40.0062h46v.9874h-46z"/><path fill="none" stroke="gray" d="m12 40-9 9"/><path fill="gray" d="m11 3h1v38h-1z"/><path fill="#eac282" d="m21 3-10 40c-.535795 2.14318 4.253295 4 9.5 4s9.5-1.790861 9.5-4z"/><path fill="#eac282" d="m43 3-10 40c-.535795 2.1432 4.253295 4 9.5 4s9.5-1.7909 9.5-4z"/><path fill="#4d82b8" d="m43 3-6.75 27h-.002a6.4119763 3 0 0 0 6.412109 3 6.4119763 3 0 0 0 6.41211-3h.002z"/><g fill="#fff"><path d="m40.479462 37.0001a2 2 0 0 0 -2 2 2 2 0 0 0 2 2 2 2 0 0 0 2-2 2 2 0 0 0 -2-2zm0 1a1 1 0 0 1 1 1 1 1 0 0 1 -1 1 1 1 0 0 1 -1-1 1 1 0 0 1 1-1z"/><path d="m44.479462 41.0001a2 2 0 0 0 -2 2 2 2 0 0 0 2 2 2 2 0 0 0 2-2 2 2 0 0 0 -2-2zm0 1a1 1 0 0 1 1 1 1 1 0 0 1 -1 1 1 1 0 0 1 -1-1 1 1 0 0 1 1-1z"/><path fill-rule="evenodd" d="m45.079072 36.7004-6 8 .80078.5996 6-8z"/></g><path fill="#4d82b8" d="m21 3-8.5 34h.0039a8.0947018 3 0 0 0 -.0098.07422 8.0947018 3 0 0 0 8.095703 3 8.0947018 3 0 0 0 8.09375-3 8.0947018 3 0 0 0 -.005819-.07422h-.02734z"/></svg>