<svg xmlns="http://www.w3.org/2000/svg" width="60" height="52" viewBox="0 0 60 52"><path fill="#fff" d="m0-.0001h60v52h-60z"/><path fill="#fff" d="m0-.0001h60v52h-60z"/><path fill="none" stroke="gray" d="m14 37-12 12"/><path fill="gray" d="m13 37h46v.9874h-46z"/><path fill="gray" d="m13 2h1v36h-1z"/><path fill="#4d82b8" d="m11 5c-1.6316426-.2879-3 2.6863-3 6s1.343146 6 3 6l34-6z"/><path fill="#eac282" d="m7 10c-1.57183-.5239-3 2.6863-3 6s1.3431458 6 3 6l18-6z"/><path fill="#4d82b8" d="m11 23c-1.6409563-.229-3 2.6863-3 6s1.343146 6 3 6l43-6z"/><path fill="#eac282" d="m7 28c-1.6284759-.3053-3 2.6863-3 6s1.3431458 6 3 6l32-6z"/></svg>