<svg xmlns="http://www.w3.org/2000/svg" width="60" height="52" viewBox="0 0 60 52"><path fill="#fff" d="m0 0h60v52h-60z"/><path fill="none" stroke="gray" d="m14 37-12 12"/><path fill="gray" d="m13 37h46v.9874h-46z"/><path fill="gray" d="m13 2h1v36h-1z"/><path fill="#4d82b8" d="m16 17a8 4 0 0 0 0 .013672 8 4.5123385 0 0 0 0 .011719v5.974609 1.998047.001953a8 4 0 0 0 0 .013672 8 4.5123385 0 0 0 0 .011719 8 4.5123385 0 0 0 0 .001953v5.972656a8 4 0 0 0 0 .015625 8 4.5123385 0 0 0 0 .011719v1.972656a8 4 0 0 0 0 .013672 8 4.5123385 0 0 0 0 .013672v5.972656.001953a8 4 0 0 0 0 .013672 8 4.5123385 0 0 0 0 .011719h.001953a8 4 0 0 0 7.998047 3.972656 8 4 0 0 0 7.998047-3.974609h.001953a8 4.5123385 0 0 0 -.001953-.013672 8 4 0 0 0 .001953-.011719v-5.974609-.025391-1.974609-.025391-5.974609-.025391-2-6a8 4 0 0 1 -8 3.998047 8 4 0 0 1 -8-3.998047z"/><path fill="#eac282" d="m12 37v8a8 4 0 0 0 0 .013672 8 4.5123385 0 0 0 0 .011719h.001953a8 4 0 0 0 7.998047 3.974609 8 4 0 0 0 7.998047-3.974609h.001953a8 4.5123385 0 0 0 -.001953-.013672 8 4 0 0 0 .001953-.011719v-8a8 4 0 0 1 -8 4 8 4 0 0 1 -8-4z"/><ellipse cx="24" cy="16.998" fill="#4d82b8" opacity=".8" rx="8" ry="4"/><ellipse cx="20" cy="37" fill="#eac282" opacity=".8" rx="8" ry="4"/><path fill="#4d82b8" d="m39 9v7.998047a8 4 0 0 0 0 .015625 8 4.5123385 0 0 0 0 .011719v5.974609 2a8 4 0 0 0 0 .013672 8 4.5123385 0 0 0 0 .013672v5.972656a8 4 0 0 0 0 .015625 8 4.5123385 0 0 0 0 .011719v7.974609a8 4 0 0 0 0 .013672 8 4.5123385 0 0 0 0 .011719h.001953a8 4 0 0 0 7.998047 3.972656 8 4 0 0 0 7.998047-3.974609h.001953a8 4.5123385 0 0 0 -.001953-.013672 8 4 0 0 0 .001953-.011719v-7.974609-.025391-5.974609-.025391-2-5.974609-.025391-8a8 4 0 0 1 -8 3.998047 8 4 0 0 1 -8-3.998047z"/><path fill="#eac282" d="m34.998047 28.976562v7.998047a8 4 0 0 0 0 .013672 8 4.5123385 0 0 0 0 .011719v7.974609a8 4 0 0 0 0 .013672 8 4.5123385 0 0 0 0 .013672h.001953a8 4 0 0 0 7.998047 3.974609 8 4 0 0 0 7.998047-3.974609h.001953a8 4.5123385 0 0 0 -.001953-.015625 8 4 0 0 0 .001953-.011719v-7.974609-.023438-8a8 4 0 0 1 -8 3.998047 8 4 0 0 1 -8-3.998047z"/><ellipse cx="47" cy="8.998" fill="#4d82b8" opacity=".8" rx="8" ry="4"/><ellipse cx="42.998" cy="28.974" fill="#eac282" opacity=".8" rx="8" ry="4"/></svg>