<svg xmlns="http://www.w3.org/2000/svg" width="60" height="52" viewBox="0 0 60 52"><path fill="#fff" d="m0 0h60v52h-60z"/><g fill="gray"><path fill-rule="evenodd" d="m11.646484 39.6456-8.9999996 9 .7070312.707 9.0000004-9z"/><path d="m11 40.0062h46v.9874h-46z"/><path d="m9 3h1v38h-1z"/></g><path fill="#4d82b8" d="m7 15a2 4 0 0 0 -2 4 2 4 0 0 0 2 4h24a2 4 0 0 1 -2-4 2 4 0 0 1 2-4z"/><ellipse cx="19" cy="-31" fill="#4d82b8" opacity=".8" rx="4" ry="2" transform="rotate(90)"/><path fill="#eac282" d="m7 7c-1.1045695 0-2 1.7909-2 4s.8954305 4 2 4h12a2 4 0 0 1 -2-4 2 4 0 0 1 2-4z"/><ellipse cx="11" cy="-19" fill="#eac282" opacity=".7" rx="4" ry="2" transform="rotate(90)"/><path fill="#4d82b8" d="m7 35c-1.1045695 0-2 1.7909-2 4s.8954305 4 2 4h40a2 4 0 0 1 -2-4 2 4 0 0 1 2-4z"/><ellipse cx="39" cy="-47" fill="#4d82b8" opacity=".8" rx="4" ry="2" transform="rotate(90)"/><g fill="#eac282"><path d="m7 27c-1.1045695 0-2 1.7909-2 4s.8954305 4 2 4h28a2 4 0 0 1 -2-4 2 4 0 0 1 2-4z"/><ellipse cx="31" cy="-35" opacity=".7" rx="4" ry="2" transform="rotate(90)"/></g></svg>