<svg xmlns="http://www.w3.org/2000/svg" xmlns:xlink="http://www.w3.org/1999/xlink" width="60" height="52" viewBox="0 0 60 52"><linearGradient id="a" x1="19" x2="19" y1="1023.362" y2="1015.362" gradientTransform="matrix(.98461538 0 0 1.875 .210256 -1895.8041)" gradientUnits="userSpaceOnUse"><stop offset="0" stop-color="#f62459"/><stop offset="1" stop-color="#f8567f"/></linearGradient><path fill="url(#a)" d="m7 8a4 7.5 0 0 0 -4 7.5 4 7.5 0 0 0 4 7.5h28v-15z"/><path fill="#fff" d="m0 0h60v52h-60z"/><g fill="gray"><path fill-rule="evenodd" d="m11.646484 39.6456-8.9999996 9 .7070312.707 9.0000004-9z"/><path d="m11 40.0062h46v.9874h-46z"/><path d="m9 3h1v38h-1z"/></g><path fill="#eac282" d="m7 28a4 7.5 0 0 0 -4 7.5 4 7.5 0 0 0 4 7.5h28v-15z"/><path fill="#4d82b8" d="m27 28c-2.209139 0-4 3.3579-4 7.5s1.790861 7.5 4 7.5h22a4 7.5 0 0 1 -4-7.5 4 7.5 0 0 1 4-7.5z"/><ellipse cx="35.5" cy="-49" fill="#4d82b8" opacity=".8" rx="7.5" ry="4" transform="rotate(90)"/><path fill="#eac282" d="m7 8c-2.209139 0-4 3.357864-4 7.5s1.790861 7.5 4 7.5h12c-2.209139 0-4-3.3579-4-7.5s1.790861-7.5 4-7.5z"/><g fill="#4d82b8"><path d="m19 8c-2.209139 0-4 3.3579-4 7.5s1.790861 7.5 4 7.5h8 8a4 7.5 0 0 1 -4-7.5 4 7.5 0 0 1 4-7.5h-8z"/><ellipse cx="15.5" cy="-35" opacity=".8" rx="7.5" ry="4" transform="rotate(90)"/></g></svg>