<svg xmlns="http://www.w3.org/2000/svg" width="60" height="52" viewBox="0 0 60 52"><path fill="#fff" d="m0 0h60v52h-60z"/><path fill="none" stroke="gray" d="m12 40-9 9"/><path fill="gray" d="m11 40.0062h46v.9874h-46z"/><path fill="gray" d="m11 3h1v38h-1z"/><g fill="#4d82b8"><path d="m18 7v36a5 2 0 0 0 5 2 5 2 0 0 0 5-2v-36a5 2 0 0 1 -5 2 5 2 0 0 1 -5-2z"/><ellipse cx="23" cy="7" opacity=".7" rx="5" ry="2"/><path d="m44 22v21a5 2 0 0 0 5 2 5 2 0 0 0 5-2v-21a5 2 0 0 1 -5 2 5 2 0 0 1 -5-2z"/><ellipse cx="49" cy="22" opacity=".7" rx="5" ry="2"/></g><g fill="#eac282"><path d="m8 16v27a5 2 0 0 0 5 2 5 2 0 0 0 5-2v-27a5 2 0 0 1 -5 2 5 2 0 0 1 -5-2z"/><ellipse cx="13" cy="16" opacity=".7" rx="5" ry="2"/><path d="m34 14v2 25 2a5 2 0 0 0 5 2 5 2 0 0 0 5-2v-2-25-2a5 2 0 0 1 -5 2 5 2 0 0 1 -5-2z"/><ellipse cx="39" cy="14" opacity=".7" rx="5" ry="2"/></g></svg>