<svg xmlns="http://www.w3.org/2000/svg" width="60" height="52" viewBox="0 0 60 52"><path fill="#fff" d="m0 0h60v52h-60z"/><path fill="gray" d="m11 40.0062h46v.9874h-46z"/><path fill="#eac282" d="m32 21v6 9 6a9.5 4 0 0 0 9.5 4 9.5 4 0 0 0 9.5-4v-6-9-6a9.5 4 0 0 1 -9.5 4 9.5 4 0 0 1 -9.5-4z"/><path fill="#4d82b8" d="m32 9v12a9.5 4 0 0 0 9.5 4 9.5 4 0 0 0 9.5-4v-12a9.5 4 0 0 1 -9.5 4 9.5 4 0 0 1 -9.5-4z"/><ellipse cx="41.5" cy="9" fill="#4d82b8" opacity=".7" rx="9.5" ry="4"/><path fill="gray" d="m11.646484 39.646484-8.9999996 9 .7070312.707032 9.0000004-9z"/><path fill="gray" d="m11 3h1v38h-1z"/><g fill="#fff"><path d="m39.5 15.0001a2 2 0 0 0 -2 2 2 2 0 0 0 2 2 2 2 0 0 0 2-2 2 2 0 0 0 -2-2zm0 1a1 1 0 0 1 1 1 1 1 0 0 1 -1 1 1 1 0 0 1 -1-1 1 1 0 0 1 1-1z"/><path d="m43.5 19.0001a2 2 0 0 0 -2 2 2 2 0 0 0 2 2 2 2 0 0 0 2-2 2 2 0 0 0 -2-2zm0 1a1 1 0 0 1 1 1 1 1 0 0 1 -1 1 1 1 0 0 1 -1-1 1 1 0 0 1 1-1z"/><path fill-rule="evenodd" d="m44.09961 14.7004-6 8 .80078.5996 6-8z"/></g><path fill="#eac282" d="m10 27v15a9.5 4 0 0 0 9.5 4 9.5 4 0 0 0 9.5-4v-15a9.5 4 0 0 1 -9.5 4 9.5 4 0 0 1 -9.5-4z"/><g fill="#4d82b8"><path d="m10 9v18a9.5 4 0 0 0 9.5 4 9.5 4 0 0 0 9.5-4v-18a9.5 4 0 0 1 -9.5 4 9.5 4 0 0 1 -9.5-4z"/><ellipse cx="19.5" cy="9" opacity=".7" rx="9.5" ry="4"/></g></svg>