<svg xmlns="http://www.w3.org/2000/svg" width="60" height="52" viewBox="0 0 60 52"><path fill="#fff" d="m0 0h60v52h-60z"/><g fill="gray"><path fill-rule="evenodd" d="m11.646484 39.6456-8.9999996 9 .7070312.707 9.0000004-9z"/><path d="m11 40.0062h46v.9874h-46z"/><path d="m9 3h1v38h-1z"/></g><path fill="#eac282" d="m7 28a4 7.5 0 0 0 -4 7.5 4 7.5 0 0 0 4 7.5h28v-15z"/><path fill="#4d82b8" d="m27 28c-2.209139 0-4 3.3579-4 7.5s1.790861 7.5 4 7.5h22a4 7.5 0 0 1 -4-7.5 4 7.5 0 0 1 4-7.5z"/><ellipse cx="35.5" cy="-49" fill="#4d82b8" opacity=".8" rx="7.5" ry="4" transform="rotate(90)"/><path fill="#eac282" d="m7 8a4 7.5 0 0 0 -4 7.5 4 7.5 0 0 0 4 7.5h28v-15z"/><path fill="#4d82b8" d="m19 8c-2.209139 0-4 3.3579-4 7.5s1.790861 7.5 4 7.5h8 14 8a4 7.5 0 0 1 -4-7.5 4 7.5 0 0 1 4-7.5h-8-14z"/><ellipse cx="15.5" cy="-49" fill="#4d82b8" opacity=".8" rx="7.5" ry="4" transform="rotate(90)"/><g fill="#fff"><path d="m37 11.4999a2 2 0 0 0 -2 2 2 2 0 0 0 2 2 2 2 0 0 0 2-2 2 2 0 0 0 -2-2zm0 1a1 1 0 0 1 1 1 1 1 0 0 1 -1 1 1 1 0 0 1 -1-1 1 1 0 0 1 1-1z"/><path d="m41 15.4999a2 2 0 0 0 -2 2 2 2 0 0 0 2 2 2 2 0 0 0 2-2 2 2 0 0 0 -2-2zm0 1a1 1 0 0 1 1 1 1 1 0 0 1 -1 1 1 1 0 0 1 -1-1 1 1 0 0 1 1-1z"/><path fill-rule="evenodd" d="m41.59961 11.2002-6 8 .80078.5996 6-8z"/></g></svg>