<svg xmlns="http://www.w3.org/2000/svg" width="72.533" height="57.6" viewBox="0 0 68 54"><path fill="gray" d="m5 4.0000002c-.5539999 0-1 .4460001-1 1v43.9999998c0 .554.4460001 1 1 1h58c .554 0 1-.446 1-1v-43.9999998c0-.5539999-.446-1-1-1zm0 1h58v43.9999998h-58z"/><path fill="#fff" d="m5 4.999999h58v44h-58z"/><path fill="#4d82b8" d="m9 8c-.5540001 0-1 .4459999-1 1v6c0 .554.4459999 1 1 1h50c .554 0 1-.446 1-1v-6c0-.5540001-.446-1-1-1zm0 1h50v6h-50z"/><path fill="gray" d="m9 18c-.5539995 0-1 .446-1 1v26c0 .554.4460005 1 1 1h50c .554 0 1-.446 1-1v-26c0-.554-.446-1-1-1zm0 1h50v26h-50z"/></svg>