<svg xmlns="http://www.w3.org/2000/svg" viewBox="0 0 24 24"><path fill="gray" d="m2.9492188 14c-.5263 0-.9492188.422919-.9492188.949219v6.101562c0 .5263.4229188.949219.9492188.949219h8.1015622c.5263 0 .949219-.422919.949219-.949219v-2.050781h-1v2h-8v-6h1v-1z"/><path fill="#fff" d="m3 15v6h8v-2h-6c-.554 0-1-.446-1-1v-3z"/><path fill="gray" d="m12.949219 2c-.5263 0-.949219.4229187-.949219.9492188v2.0507812h1v-2h8v6h-1v1h1.050781c.5263 0 .949219-.4229188.949219-.9492188v-6.1015624c0-.5263-.422919-.9492188-.949219-.9492188z"/><path fill="#fff" d="m13 3v2h6c.554 0 1 .446 1 1v3h1v-6z"/><rect width="14" height="12" x="5" y="6" fill="#eac282" ry="1.254"/></svg>