<svg xmlns="http://www.w3.org/2000/svg" xmlns:svg="http://www.w3.org/2000/svg" id="svg8" version="1.1" viewBox="0 0 24 24"><metadata id="metadata14"/><path id="path2" fill="#fff" d="m4.71875 2.5058594-1.2128906 1.1855468v1.1875.3613282l5.9941406 8.3828126v4.310547.046875l2.878906 2.02539 1.003906-2.005859h-.382812a1.0001 1.0001 0 0 1 -.78125-1.625l2.964844-3.699219 5.310547-7.4355466v-1.5488282l-1.212891-1.1855468z"/><path id="path4" fill="#eac282" fill-rule="evenodd" d="m17.004237 12h5.995763l-4 4h2l-9 7 3-6h-2z" style="fill:gray;fill-opacity:1"/><path id="path6" d="M 4.71875 2 A 0.50535904 0.50535904 0 0 0 4.3652344 2.1445312 L 3.1523438 3.3300781 A 0.50535904 0.50535904 0 0 0 3 3.6914062 L 3 4.8789062 L 3 5.2402344 A 0.50535904 0.50535904 0 0 0 3.09375 5.5351562 L 3.4804688 6.0742188 L 4.359375 5.5664062 L 4.0097656 5.078125 L 4.0097656 4.8789062 L 4.0097656 3.9042969 L 4.9257812 3.0097656 L 5.8046875 3.0097656 L 5.8046875 2 L 4.71875 2 z M 6.8046875 2 L 6.8046875 3.0097656 L 8.6523438 3.0097656 L 8.6523438 2 L 6.8046875 2 z M 9.6523438 2 L 9.6523438 3.0097656 L 11.5 3.0097656 L 11.5 2 L 9.6523438 2 z M 12.5 2 L 12.5 3.0097656 L 14.347656 3.0097656 L 14.347656 2 L 12.5 2 z M 15.347656 2 L 15.347656 3.0097656 L 17.195312 3.0097656 L 17.195312 2 L 15.347656 2 z M 18.195312 2 L 18.195312 3.0097656 L 19.074219 3.0097656 L 19.990234 3.9042969 L 19.990234 5.078125 L 14.095703 13.328125 A 0.50535904 0.50535904 0 0 0 14 13.623047 L 14 14.152344 L 16.224609 11.375 A 1.0001 1.0001 0 0 1 17.001953 11 L 20.90625 5.5351562 A 0.50535904 0.50535904 0 0 0 21 5.2402344 L 21 3.6914062 A 0.50535904 0.50535904 0 0 0 20.847656 3.3300781 L 19.634766 2.1445312 A 0.50535904 0.50535904 0 0 0 19.28125 2 L 18.195312 2 z M 4.9453125 6.3847656 L 4.0644531 6.8925781 L 5.1445312 8.4023438 L 6.0253906 7.8945312 L 4.9453125 6.3847656 z M 6.609375 8.7109375 L 5.7285156 9.21875 L 8.9941406 13.785156 L 8.9941406 17.933594 L 8.9941406 17.980469 A 0.50535904 0.50535904 0 0 0 9.2089844 18.394531 L 12.150391 20.464844 L 12.607422 19.548828 L 10.005859 17.71875 L 10.005859 13.623047 A 0.50535904 0.50535904 0 0 0 9.9101562 13.328125 L 6.609375 8.7109375 z M 15.011719 19.212891 L 14.865234 19.505859 L 15.011719 19.392578 L 15.011719 19.212891 z" style="fill:gray;fill-opacity:1"/><rect id="rect937" width="1" height="10" x="12.696" y="-2.661" transform="rotate(60)" style="fill:#fff;fill-opacity:1;stroke-width:2;stroke-linecap:round;stroke-linejoin:bevel;paint-order:stroke fill markers"/><rect id="rect939" width="1" height="10" x="15.544" y="-2.661" transform="rotate(60)" style="fill:#fff;fill-opacity:1;stroke-width:2;stroke-linecap:round;stroke-linejoin:bevel;paint-order:stroke fill markers"/><rect style="fill:#fff;fill-opacity:1;stroke-width:2;stroke-linecap:round;stroke-linejoin:bevel;paint-order:stroke fill markers" id="rect941" width="1" height="10" x="18.391" y="-2.661" transform="rotate(60)"/></svg>