<svg xmlns="http://www.w3.org/2000/svg" width="24" height="24" version="1.1" viewBox="0 0 24 24"><g><g stroke-width=".625" transform="translate(.87499 -2.0001)"><path fill="#d86344" d="m4.0158 4.0057c-0.57298 0.10933-1.0259 0.66657-1.0156 1.2497v17.495c6.25e-5 0.6543 0.5955 1.2496 1.25 1.2497h13.749c0.65445-6.3e-5 1.2499-0.59536 1.25-1.2497v-10.909c0.0075-0.32998-0.12187-0.66103-0.35155-0.89819l-6.5878-6.5858c-0.23722-0.22956-0.56834-0.35911-0.8984-0.35146h-7.1617c-0.077872-0.0075-0.15647-0.0075-0.23437 0z"/><path fill="#d86344" d="m14.662 4.0097c-0.41601 0.13325-0.55602 0.76656-0.2353 1.0644l3.7648 3.7845c0.3478 0.33151 1.0405 0.04786 1.0589-0.43364v-3.7845c-3.7e-5 -0.33026-0.29894-0.63072-0.62748-0.63076h-3.7648c-0.06487-0.01-0.13125-0.01-0.19608 0z"/><path fill="#fff" d="m4.2501 5.2573v17.5h13.75v-11.074l-0.09765-0.09762-6.2108-6.25-0.07812-0.07813h-7.0506z"/><path fill="#fff" d="m4.8751 5.8823h6.2865l6.213 6.25v10h-12.5z"/><rect width="10" height="8.75" x="6.124" y="11.498" fill="#d86344" rx="2" ry="2"/><rect width="8.75" height="7.5" x="6.749" y="12.123" fill="#fff" rx="1" ry="1"/></g><g fill="#d86344" transform="translate(.87499 -2.0001) matrix(.625 0 0 .625 1.125 4.0001)"><path d="m10.999 14.996h10v2h-10z"/><path d="m13.999 17.996h7v2h-7z"/><circle cx="11.999" cy="18.996" r="1"/><path d="m13.999 20.996h7v2h-7z"/><circle cx="11.999" cy="21.996" r="1"/></g></g></svg>