<svg xmlns="http://www.w3.org/2000/svg" version="1.1" viewBox="0 0 24 24"><g fill="#e68497"><rect width="1" height="20" x="-5" y="-22" ry=".5" transform="matrix(0,-1,-1,0,0,0)"/><path d="m2.5 19c-0.277 0-0.5 0.223-0.5 0.5s0.223 0.5 0.5 0.5h10.723l0.98828-1h-11.711z"/><rect width="1" height="20" x="-12" y="-22" ry=".5" transform="matrix(0,-1,-1,0,0,0)"/></g><g><path fill="#e68497" d="m-7.0909 31.272-2.4878-2.5314 2.3938-2.6518-1.7256-1.6426-2.4636 2.5271-2.5135-2.5271-1.7954 1.703 2.5135 2.5807-2.5135 2.5395 1.7954 1.7689 2.5107-2.6535 2.5164 2.6535z" transform="translate(29.799,-10.333)"/></g></svg>