<svg xmlns="http://www.w3.org/2000/svg" viewBox="0 0 32 32"><g transform="matrix(0 1 -1 0 32 0)"><path fill="#fff" fill-rule="evenodd" stroke="gray" stroke-linecap="round" stroke-linejoin="round" d="m4.5 28.5v-25h23v25z"/><path fill="#4d82b8" d="m21.000001 11.999998v1.272728c0 .264294-.05623.504123-.168675.662698-.119483.158577-.267067.275622-.442771.351133l-3.388555 1.531624v6.363637l3.378013 1.58988c.15462.06042.298696.177456.432229.351132.126506.166128.189759.373786.189759.622978v1.254191l-14-5.499999v-3zm-6.000001 9.500002v-5l-6 2.5z"/><g fill="gray"><rect width="1" height="8" x="8" y="6" opacity=".99" ry=".5"/><rect width="1" height="6" x="12" y="6" opacity=".99" ry=".5"/><rect width="1" height="4" x="16" y="6" opacity=".99" ry=".5"/></g><rect width="1" height="20" x="23" y="6" fill="#818181" opacity=".99" ry=".473"/><rect width="1" height="2" x="19" y="6" fill="#818181" opacity=".99" ry=".473"/></g></svg>