<svg xmlns="http://www.w3.org/2000/svg" viewBox="0 0 24 24"><g fill="gray"><path d="m11 12c-.554 0-1 .446-1 1v6c0 .554.446 1 1 1h3c.554 0 1-.446 1-1v-6c0-.554-.446-1-1-1zm0 1h3v6h-3z"/><path d="m15 10c-.554 0-1 .446-1 1v8c0 .554.446 1 1 1h3c.554 0 1-.446 1-1v-8c0-.554-.446-1-1-1zm0 1h3v8h-3z"/><rect width="4" height="14" x="7" y="6" ry="1"/><rect width="20" height="1" x="-22" y="-5" ry=".5" transform="matrix(0 -1 -1 0 0 0)"/><rect width="1" height="20" x="-20" y="-22" ry=".5" transform="matrix(0 -1 -1 0 0 0)"/></g><path fill="#fff" d="m15 11h3v8h-3z"/><path fill="#fff" d="m11 13h3v6h-3z"/><path fill="#4d82b8" d="m14 2c-.554 0-1 .446-1 1v5c0 .554.446 1 1 1h7c.554 0 1-.446 1-1v-5c0-.554-.446-1-1-1zm0 1h7v5h-7z"/><path fill="#fff" d="m14 3h7v5h-7z"/><path fill="#4d82b8" d="m15 4h1v1h-1z"/><path fill="#4d82b8" d="m17 4h3v1h-3z"/><path fill="#4d82b8" d="m15 6h1v1h-1z"/><path fill="#4d82b8" d="m17 6h3v1h-3z"/></svg>