<svg xmlns="http://www.w3.org/2000/svg" version="1.1" viewBox="0 0 24 24"><g fill="#b3b3b3"><path d="m11 12c-0.554 0-1 0.446-1 1v6c0 0.554 0.446 1 1 1h3c0.554 0 1-0.446 1-1v-6c0-0.554-0.446-1-1-1zm0 1h3v6h-3z"/><path d="m15 10c-0.554 0-1 0.446-1 1v8c0 0.554 0.446 1 1 1h3c0.554 0 1-0.446 1-1v-8c0-0.554-0.446-1-1-1zm0 1h3v8h-3z"/><path d="m8 6c-0.554 0-1 0.446-1 1v12c0 0.554 0.446 1 1 1h2c0.554 0 1-0.446 1-1v-12c0-0.554-0.446-1-1-1h-1z"/><rect width="1" height="20" x="-20" y="-22" ry=".5" transform="matrix(0,-1,-1,0,0,0)"/></g><path fill="#fff" d="m15 11h3v8h-3z"/><path fill="#fff" d="m11 13h3v6h-3z"/><g fill="#e68497" stroke-width=".707"><path fill="#4d82b8" stroke-width=".707" d="m15 8h3v1h-3z" transform="matrix(1,0,0,2,0,-9)"/></g><rect width="1" height="20" x="-5" y="2" fill="#b3b3b3" ry=".5" transform="scale(-1,1)"/></svg>