<svg xmlns="http://www.w3.org/2000/svg" viewBox="0 0 24 24"><g fill="#4d82b8"><path d="m1.495667 8.999133c-.275368.0011-.498022.22463-.498047.5v5c-.000621.424388.494386.65657.820312.384766l3-2.5c.24089-.199955.24089-.569577 0-.769532l-3-2.5c-.09052-.07512-.204633-.115924-.322265-.115234z"/><rect width="4" height="2" x="6" y="11" ry="1"/><rect width="4" height="2" x="12" y="11" ry="1"/><rect width="4" height="2" x="18" y="11" ry="1"/></g><path fill="gray" d="m7 14c-.554 0-1 .446-1 1v7h1v-7h14v7h1v-7c0-.554-.446-1-1-1z"/><path fill="#fff" d="m7 15h14v7h-14z"/><path fill="gray" d="m21 2v7h-14-1c0 .554.446 1 1 1h14c.554 0 1-.446 1-1v-7z"/><path fill="#fff" d="m9 2v6c0 .554-.446 1-1 1h13v-7z"/><rect width="6" height="1" x="1" y="1" fill="#eac282" ry=".5"/><rect width="1" height="6" x="1" y="1" fill="#eac282" ry=".5"/><path d="m2.4999352 7.4999941 5.0000589-5.0000589v5.0000589z" style="fill:#eac282;fill-rule:evenodd;stroke:#eac282;stroke-width:1.000012;stroke-linecap:round;stroke-linejoin:round"/></svg>