<svg xmlns="http://www.w3.org/2000/svg" viewBox="0 0 24 24"><path fill="#fff" d="m3 3v18h14v-18z"/><path fill="gray" d="m3 2c-.554 0-1 .446-1 1v18c0 .554.446 1 1 1h14c.554 0 1-.446 1-1v-18c0-.554-.446-1-1-1zm0 1h14v18h-14z"/><g fill="gray"><rect width="12" height="1" x="4" y="9" ry=".41"/><rect width="12" height="1" x="4" y="15" ry=".5"/><rect width="12" height="1" x="4" y="12" ry=".482"/><rect width="12" height="1" x="4" y="18" ry=".482"/><rect width="12" height="1" x="4" y="6" ry=".41"/></g><path fill="#eac282" d="m21 11.5a7.5 7.5 0 0 1 -7.5 7.5 7.5 7.5 0 0 1 -7.5-7.5 7.5 7.5 0 0 1 7.5-7.5 7.5 7.5 0 0 1 7.5 7.5z"/></svg>