<svg xmlns="http://www.w3.org/2000/svg" width="24" height="24"><path fill="#fff" d="m3 3h18v18h-18z"/><g fill="gray"><rect width="3" height="3" x="19" y="2" ry="1"/><rect width="3" height="3" x="2" y="2" ry="1"/><rect width="3" height="3" x="19" y="19" ry="1"/><rect width="3" height="3" x="2" y="19" ry="1"/><rect width="12" height="1" x="6" y="20" ry=".5"/><rect width="12" height="1" x="6" y="3" ry=".5"/><rect width="1" height="12" x="3" y="6" ry=".5"/><rect width="1" height="12" x="20" y="6" ry=".5"/></g><path fill="#eac282" d="m12 5-2.625 5h-4.375l4 3.5-1 5.5 4-3 4 3-1-5.5 4-3.5h-4.375z"/></svg>