<svg xmlns="http://www.w3.org/2000/svg" xmlns:svg="http://www.w3.org/2000/svg" id="svg16" version="1.1" viewBox="0 0 24 24"><metadata id="metadata22"/><path id="path2" d="M 21,6 H 3 v 15 h 18" style="fill:#fcfcfc"/><g id="g12" style="fill:gray"><path id="path4" d="M 22,3 C 22,2.446 21.554,2 21,2 H 3 C 2.446,2 2,2.446 2,3 v 18 c 0,0.554 0.446,1 1,1 h 18 c 0.554,0 1,-0.446 1,-1 z M 21,21 H 3 V 6 h 18 z"/><path id="path6" d="m 5,8 v 4 H 9 V 8 Z m 1,1 h 2 v 2 H 6 Z"/><path id="path8" d="m 5,14 v 4 h 4 v -4 z m 1,1 h 2 v 2 H 6 Z"/><path id="path10" d="m 11,9 h 7 v 1 h -7 z"/></g><ellipse id="circle833" cx="17.704" cy="18.325" rx="5" ry="3.5" style="fill:#fcfcfc;fill-opacity:1;stroke:#4d82b8;stroke-width:2;stroke-linecap:round;stroke-linejoin:round;stroke-miterlimit:4;stroke-dasharray:none;stroke-dashoffset:0;stroke-opacity:1;paint-order:markers stroke fill"/><circle style="fill:#4d82b8;fill-opacity:1;stroke:none;stroke-width:4;stroke-linecap:round;stroke-linejoin:round;stroke-miterlimit:4;stroke-dasharray:none;stroke-dashoffset:0;stroke-opacity:1;paint-order:markers stroke fill" id="path831" cx="17.704" cy="18.325" r="2"/></svg>