<svg xmlns="http://www.w3.org/2000/svg" width="60" height="52" viewBox="0 0 60 52"><path fill="#fff" d="m0 0h60v52h-60z"/><path fill="#4d82b8" fill-rule="evenodd" d="m29.376953 8-.376953.1992188v.8007812h1v-.8007812l-.376953-.1992188zm-2.376953 1.2519531-14.0625 7.4003909a1.0001 1.0001 0 0 1 .0625.347656v3a1.0001 1.0001 0 0 1 -1 1h-.433594l10.644532 15.96875 16.578124 2.072266 9.019532-18.041016h-.808594a1.0001 1.0001 0 0 1 -1-1v-3a1.0001 1.0001 0 0 1 .0625-.345703l-14.0625-7.4023439v.7480469a1.0001 1.0001 0 0 1 -1 1h-3a1.0001 1.0001 0 0 1 -1-1zm2 2.7480469h1a1.0001 1.0001 0 0 1 1 1 1.0001 1.0001 0 0 1 1 1v1a1.0001 1.0001 0 0 1 -1 1 1.0001 1.0001 0 0 1 -1 1h-1a1.0001 1.0001 0 0 1 -1-1 1.0001 1.0001 0 0 1 -1-1v-1a1.0001 1.0001 0 0 1 1-1 1.0001 1.0001 0 0 1 1-1zm-18.623047 6-.376953.197266v.455078l.083984.125.148438.222656h.767578v-1zm37.623047 0v1h.808594l.191406-.380859v-.419922l-.378906-.199219zm-5 1h1a1.0001 1.0001 0 0 1 1 1 1.0001 1.0001 0 0 1 1 1v1a1.0001 1.0001 0 0 1 -1 1 1.0001 1.0001 0 0 1 -1 1h-1a1.0001 1.0001 0 0 1 -1-1 1.0001 1.0001 0 0 1 -1-1v-1a1.0001 1.0001 0 0 1 1-1 1.0001 1.0001 0 0 1 1-1zm-24 2h1a1.0001 1.0001 0 0 1 1 1 1.0001 1.0001 0 0 1 1 1v1a1.0001 1.0001 0 0 1 -1 1 1.0001 1.0001 0 0 1 -1 1h-1a1.0001 1.0001 0 0 1 -1-1 1.0001 1.0001 0 0 1 -1-1v-1a1.0001 1.0001 0 0 1 1-1 1.0001 1.0001 0 0 1 1-1z"/><path fill="#4d82b8" d="m37 37h3v3h-3z"/><path fill="#fff" d="m38 38h1v1h-1z"/><path fill="#4d82b8" d="m21 35h3v3h-3z"/><path fill="#fff" d="m22 36h1v1h-1z"/><path fill="#eac282" fill-rule="evenodd" d="m31.982422 15.185547a1.0001 1.0001 0 0 1 -.982422.814453 1.0001 1.0001 0 0 1 -1 1h-1a1.0001 1.0001 0 0 1 -1-1 1.0001 1.0001 0 0 1 -.646484-.240234l-6.453125 5.808593a1.0001 1.0001 0 0 1 .099609.431641 1.0001 1.0001 0 0 1 1 1v1a1.0001 1.0001 0 0 1 -1 1 1.0001 1.0001 0 0 1 -1 1h-1a1.0001 1.0001 0 0 1 -.388672-.080078l-2.222656 14.080078h.611328a1.0001 1.0001 0 0 1 1 1 1.0001 1.0001 0 0 1 1 1v1h21v-1a1.0001 1.0001 0 0 1 1-1 1.0001 1.0001 0 0 1 1-1h1a1.0001 1.0001 0 0 1 .119141.007812l.761718-16.007812h-.880859a1.0001 1.0001 0 0 1 -1-1 1.0001 1.0001 0 0 1 -1-1v-1a1.0001 1.0001 0 0 1 .703125-.955078z"/><path fill="gray" d="m29 6v22.6328l-19.16797-11.0664-.5.8672 19.16797 11.0664v.293l-15.61719 15.6172.70703.707 15.91016-15.9102 15.91016 15.9102.70703-.707-15.61719-15.6172v-.293l19.16797-11.0664-.5-.8672-19.16797 11.0664v-22.6328z"/><g fill="#eac282"><path d="m19 24h1v1h-1z"/><path d="m20 23h1v1h-1z"/><path d="m19 22h1v1h-1z"/><path d="m18 23h1v1h-1z"/></g><path fill="#fff" d="m19 23h1v1h-1z"/><path fill="#4d82b8" d="m47 17h3v3h-3z"/><path fill="#fff" d="m48 18h1v1h-1z"/><path fill="#4d82b8" d="m9 17h3v3h-3z"/><path fill="#fff" d="m10 18h1v1h-1z"/><path fill="#4d82b8" d="m28 7h3v3h-3z"/><path fill="#fff" d="m29 8h1v1h-1z"/><g fill="#eac282"><path d="m29 15h1v1h-1z"/><path d="m30 14h1v1h-1z"/><path d="m29 13h1v1h-1z"/><path d="m28 14h1v1h-1z"/></g><path fill="#fff" d="m29 14h1v1h-1z"/><g fill="#eac282"><path d="m43 22h1v1h-1z"/><path d="m44 21h1v1h-1z"/><path d="m43 20h1v1h-1z"/><path d="m42 21h1v1h-1z"/></g><path fill="#fff" d="m43 21h1v1h-1z"/><g fill="#eac282"><path d="m42 43h1v1h-1z"/><path d="m43 42h1v1h-1z"/><path d="m42 41h1v1h-1z"/><path d="m41 42h1v1h-1z"/></g><path fill="#fff" d="m42 42h1v1h-1z"/><g fill="#eac282"><path d="m16 43h1v1h-1z"/><path d="m17 42h1v1h-1z"/><path d="m16 41h1v1h-1z"/><path d="m15 42h1v1h-1z"/></g><path fill="#fff" d="m16 42h1v1h-1z"/></svg>