<svg xmlns="http://www.w3.org/2000/svg" width="60" height="52" viewBox="0 0 60 52"><path fill="#fff" d="m0 0h60v52h-60z"/><path fill="none" stroke="#eac282" d="m19.5 23.5 9.99965-8.9997 14 6.9997-5 17.0003-16-2z"/><path fill="none" stroke="#4d82b8" d="m10.5 18.4997 18.99955-10 19 10-6 24.0003h-25.99955z"/><path fill="gray" d="m29 6v22.6328l-19.16797-11.0664-.5.8672 19.16797 11.0664v.293l-15.61719 15.6172.70703.707 15.91016-15.9102 15.91016 15.9102.70703-.707-15.61719-15.6172v-.293l19.16797-11.0664-.5-.8672-19.16797 11.0664v-22.6328z"/><g fill="#eac282"><path d="m19 24h1v1h-1z"/><path d="m20 23h1v1h-1z"/><path d="m19 22h1v1h-1z"/><path d="m18 23h1v1h-1z"/></g><path fill="#fff" d="m19 23h1v1h-1z"/><path fill="#4d82b8" d="m47 17h3v3h-3z"/><path fill="#fff" d="m48 18h1v1h-1z"/><path fill="#4d82b8" d="m41 41h3v3h-3z"/><path fill="#fff" d="m42 42h1v1h-1z"/><path fill="#4d82b8" d="m15 41h3v3h-3z"/><path fill="#fff" d="m16 42h1v1h-1z"/><path fill="#4d82b8" d="m9 17h3v3h-3z"/><path fill="#fff" d="m10 18h1v1h-1z"/><path fill="#4d82b8" d="m28 7h3v3h-3z"/><path fill="#fff" d="m29 8h1v1h-1z"/><g fill="#eac282"><path d="m29 15h1v1h-1z"/><path d="m30 14h1v1h-1z"/><path d="m29 13h1v1h-1z"/><path d="m28 14h1v1h-1z"/></g><path fill="#fff" d="m29 14h1v1h-1z"/><g fill="#eac282"><path d="m43 22h1v1h-1z"/><path d="m44 21h1v1h-1z"/><path d="m43 20h1v1h-1z"/><path d="m42 21h1v1h-1z"/></g><path fill="#fff" d="m43 21h1v1h-1z"/><g fill="#eac282"><path d="m38 39h1v1h-1z"/><path d="m39 38h1v1h-1z"/><path d="m38 37h1v1h-1z"/><path d="m37 38h1v1h-1z"/></g><path fill="#fff" d="m38 38h1v1h-1z"/><g fill="#eac282"><path d="m22 37h1v1h-1z"/><path d="m23 36h1v1h-1z"/><path d="m22 35h1v1h-1z"/><path d="m21 36h1v1h-1z"/></g><path fill="#fff" d="m22 36h1v1h-1z"/></svg>