<svg xmlns="http://www.w3.org/2000/svg" xmlns:svg="http://www.w3.org/2000/svg" id="svg8" version="1.1" viewBox="0 0 32 32"><metadata id="metadata14"/><g style="stroke:#000;stroke-opacity:1;fill:#eac282;fill-opacity:1" id="g6" fill-rule="evenodd"><path style="stroke:#000;stroke-opacity:1;fill:#eac282;fill-opacity:1" id="path2" fill="#3a3a38" d="m3.5 3a.50005.50005 0 0 0 -.5.5v19a.50005.50005 0 0 0 .5.5h4.5v5.5a.50005.50005 0 0 0 .8261719.378906l6.8593751-5.878906h12.814453a.50005.50005 0 0 0 .5-.5v-19a.50005.50005 0 0 0 -.5-.5z"/><path style="stroke:#000;stroke-opacity:1;fill:#eac282;fill-opacity:1" id="path4" fill="#fafafa" d="m4 4v18h4.5a.50005.50005 0 0 1 .5.5v4.912109l6.173828-5.291015a.50005.50005 0 0 1 .326172-.121094h12.5v-18z"/></g></svg>