<svg xmlns="http://www.w3.org/2000/svg" width="60" height="52" viewBox="0 0 60 52"><path fill="#fff" d="m0-.0001h60v52h-60z"/><path fill="#fff" d="m0-.0001h60v52h-60z"/><path fill="none" stroke="gray" d="m14 37-12 12"/><path fill="gray" d="m13 37h46v.9874h-46z"/><path fill="gray" d="m13 2h1v36h-1z"/><path fill="#4d82b8" d="m50 34-42 7v-12z"/><path fill="#eac282" d="m30 39-26 6v-12z"/><path fill="#4d82b8" d="m41 16-33 7v-12z"/><path fill="#4d82b8" fill-rule="evenodd" d="m50 34-42-5 3-3z" opacity=".7"/><g fill="#eac282"><path d="m31 20-27 7v-12z"/><g fill-rule="evenodd"><path d="m30 39-26-6 3-3z" opacity=".7"/><path d="m31 20-27-5 3-3z" opacity=".7"/></g></g><path fill="#4d82b8" fill-rule="evenodd" d="m41 16-33-5 3-3z" opacity=".7"/></svg>