<svg xmlns="http://www.w3.org/2000/svg" width="60" height="52" viewBox="0 0 60 52"><path fill="#fff" d="m0 0h60v52h-60z"/><path fill="none" stroke="gray" d="m12 40-9 9"/><path fill="gray" d="m11 40.0062h46v.9874h-46z"/><path fill="gray" d="m11 3h1v38h-1z"/><path fill="#4d82b8" d="m20 6 6 40h-16z"/><path fill="#4d82b8" fill-rule="evenodd" d="m20 6 6 40 3-3z" opacity=".7"/><path fill="#eac282" fill-rule="evenodd" d="m24.5 24.5-1.5 1.5 3 20 3-3z" opacity=".7"/><path fill="#eac282" d="m15 26-5 20h16l-3-20z"/><path fill="#4d82b8" d="m44 6 6 40h-16z"/><path fill="#4d82b8" fill-rule="evenodd" d="m44 6 6 40 3-3z" opacity=".7"/><path fill="#eac282" fill-rule="evenodd" d="m48.5 24.5-1.5 1.5 3 20 3-3z" opacity=".7"/><path fill="#eac282" d="m39 26-5 20h16l-3-20z"/><g fill="#fff"><path d="m41 35.70012a2 2 0 0 0 -2 2 2 2 0 0 0 2 2 2 2 0 0 0 2-2 2 2 0 0 0 -2-2zm0 1a1 1 0 0 1 1 1 1 1 0 0 1 -1 1 1 1 0 0 1 -1-1 1 1 0 0 1 1-1z"/><path d="m45 39.70012a2 2 0 0 0 -2 2 2 2 0 0 0 2 2 2 2 0 0 0 2-2 2 2 0 0 0 -2-2zm0 1a1 1 0 0 1 1 1 1 1 0 0 1 -1 1 1 1 0 0 1 -1-1 1 1 0 0 1 1-1z"/><path fill-rule="evenodd" d="m45.59961 35.40042-6 8 .80078.5996 6-8z"/></g></svg>