<svg xmlns="http://www.w3.org/2000/svg" width="60" height="52" viewBox="0 0 60 52"><path fill="#fff" d="m0 0h60v52h-60z"/><path fill="none" stroke="gray" d="m12 40-9 9"/><path fill="gray" d="m11 40.0062h46v.9874h-46z"/><path fill="gray" d="m11 1h1v40h-1z"/><g fill="#4d82b8"><path d="m48 37-43 8v-15z"/><path d="m39 18-34 7v-15z"/><g fill-rule="evenodd"><path d="m39 18-34-8 3-3z" opacity=".7"/><path d="m48 37-43-7 3-3z" opacity=".7"/></g></g><g fill="#eac282"><path d="m5 10v15l9-1.853516v-11.029296z"/><path fill-rule="evenodd" d="m8 7-3 3 9.003734 2.139897 2.115407-2.2590376z" opacity=".7"/><path d="m5 30v15l26-4.837891v-5.929687z"/><path fill-rule="evenodd" d="m8 27-3 3 26.013672 4.231864 1.424944-1.137556z" opacity=".7"/></g></svg>