<svg xmlns="http://www.w3.org/2000/svg" width="60" height="52" viewBox="0 0 60 52"><path fill="#fff" d="m0 0h60v52h-60z"/><path fill="none" stroke="gray" d="m12 40-9 9"/><path fill="gray" d="m11 40.0062h46v.9874h-46z"/><path fill="gray" d="m11 3h1v38h-1z"/><path fill="#eac282" d="m15 16 3 29h-8z"/><path fill="#eac282" d="m37 15 3 30h-8z"/><g fill-rule="evenodd"><path fill="#4d82b8" d="m23 9 3 36 3-3z" opacity=".8"/><path fill="#4d82b8" d="m45 24 3 21 3-3z" opacity=".8"/><g fill="#eac282"><path d="m37 15 3 30 3-3z" opacity=".8"/><path d="m15 16 3 29 3-3z" opacity=".8"/></g></g><g fill="#4d82b8"><path d="m23 9 3 36h-8z"/><path d="m45 24 3 21h-8z"/></g></svg>