<svg xmlns="http://www.w3.org/2000/svg" width="60" height="52" viewBox="0 0 60 52"><path fill="#fff" d="m0 0h60v52h-60z"/><path fill="none" stroke="gray" d="m12 40-9 9"/><path fill="gray" d="m11 40.0062h46v.9874h-46z"/><path fill="gray" d="m11 1h1v40h-1z"/><path fill="#4d82b8" d="m53 37-48 8v-15z"/><path fill="#4d82b8" fill-rule="evenodd" d="m53 37-48-7 3-3z" opacity=".7"/><path fill="#eac282" d="m5 30v15l27-4.5v-6.5625z"/><path fill="#eac282" fill-rule="evenodd" d="m8 27-3 3 27.054688 3.945312 1.308593-1.308593z" opacity=".7"/><path fill="#4d82b8" d="m53 17-48 8v-15z"/><path fill="#4d82b8" fill-rule="evenodd" d="m53 17-48-7 3-3z" opacity=".7"/><path fill="#eac282" fill-rule="evenodd" d="m8 7-3 3 14 2 2.091797-2.0917969z" opacity=".7"/><path fill="#eac282" d="m5 10v15l14-2.333984v-10.625z"/><g fill="#fff"><path d="m9 33.4999a2 2 0 0 0 -2 2 2 2 0 0 0 2 2 2 2 0 0 0 2-2 2 2 0 0 0 -2-2zm0 1a1 1 0 0 1 1 1 1 1 0 0 1 -1 1 1 1 0 0 1 -1-1 1 1 0 0 1 1-1z"/><path d="m13 37.4999a2 2 0 0 0 -2 2 2 2 0 0 0 2 2 2 2 0 0 0 2-2 2 2 0 0 0 -2-2zm0 1a1 1 0 0 1 1 1 1 1 0 0 1 -1 1 1 1 0 0 1 -1-1 1 1 0 0 1 1-1z"/><path fill-rule="evenodd" d="m13.59961 33.2002-6 8 .80078.5996 6-8z"/></g></svg>