<svg xmlns="http://www.w3.org/2000/svg" width="60" height="52" viewBox="0 0 60 52"><path fill="#fff" d="m0 0h60v52h-60z"/><path fill="none" stroke="gray" d="m14 37-12 12"/><path fill="gray" d="m13 37h46v.9874h-46z"/><path fill="#4d82b8" d="m43 11 8 32h-17z"/><path fill="gray" d="m13 2h1v36h-1z"/><path fill="#4d82b8" d="m21 12 7 31h-16z"/><g fill-rule="evenodd"><path fill="#4d82b8" d="m21 12 7 31 3-3z" opacity=".8"/><path fill="#4d82b8" d="m43 11 8 32 3-3z" opacity=".8"/><g fill="#eac282"><path d="m39 32 7 15 3-3z" opacity=".8"/><path d="m16 26 7 21 3-3z" opacity=".8"/></g></g><g fill="#eac282"><path d="m16 26 7 21h-15z"/><path d="m39 32 7 15h-15z"/></g></svg>