<svg xmlns="http://www.w3.org/2000/svg" width="60" height="52" viewBox="0 0 60 52"><path fill="#fff" d="m0 0h60v52h-60z"/><g fill="gray"><path fill-rule="evenodd" d="m11.646484 39.6456-8.9999996 9 .7070312.707 9.0000004-9z"/><path d="m11 40.0062h46v.9874h-46z"/><path d="m9 3h1v38h-1z"/></g><path fill="#eac282" fill-rule="evenodd" d="m22 11-17-3 3-3z" opacity=".7"/><g fill="#4d82b8"><path d="m39 20-34 4v-8z"/><path fill-rule="evenodd" d="m41 41-36-4 3-3z" opacity=".7"/><path d="m41 41-36 4v-8z"/></g><path fill="#eac282" d="m35 33-30 4v-8z"/><path fill="#eac282" fill-rule="evenodd" d="m35 33-30-4 3-3z" opacity=".7"/><path fill="#4d82b8" fill-rule="evenodd" d="m39 20-34-4 3-3z" opacity=".7"/><path fill="#eac282" d="m22 11-17 5v-8z"/></svg>