<svg xmlns="http://www.w3.org/2000/svg" width="60" height="52" viewBox="0 0 60 52"><path fill="#fff" d="m0 0h60v52h-60z"/><path fill="gray" d="m3 45h52v1h-52z"/><path fill="gray" d="m6 3h1v46h-1z"/><g fill-rule="evenodd"><path fill="#eac282" d="m36 24.9991v4h-13v8l-12 .0009v1l13-.0009v-8h13v-4l13 .0009v-1z"/><path fill="#4d82b8" d="m23 23h-12l3-3h9z" opacity=".7"/><path fill="#4d82b8" d="m50 6v10l3-3v-10z" opacity=".8"/><g fill="#eac282"><path d="m24 30v8l3-3v-5z" opacity=".8"/><path d="m23 37h-12l3-3h9z" opacity=".7"/></g></g><path fill="#4d82b8" d="m49 6v9h-12v-3-1h-13-1v12h-12v1h13v-1-11h12v4h1 12 1v-1-9z"/><g fill-rule="evenodd"><g fill="#eac282"><path d="m36 29h-13l3-3h10z" opacity=".7"/><path d="m50 25h-14l3-3h14z" opacity=".7"/><path d="m37 26v4l3-3v-1z" opacity=".8"/></g><g fill="#4d82b8"><path d="m37 11h-14l3-3h14z" opacity=".7"/><path d="m49 15h-12l3-3h9z" opacity=".7"/><path d="m24 12v12l3-3v-9z" opacity=".8"/><path d="m37 11v4l3-3v-4z" opacity=".8"/></g></g></svg>