<svg xmlns="http://www.w3.org/2000/svg" viewBox="0 0 16 16"><rect width="1" height="16" x="1" fill="gray" ry=".5"/><rect width="16" height="1" y="14" fill="gray" ry=".5"/><g fill="#eac282"><path d="m4 3h1v1h-1z"/><path d="m6 3h1v1h-1z"/><path d="m6 5h1v1h-1z"/><path d="m4 5h1v1h-1z"/><path d="m9 8h1v1h-1z"/><path d="m9 10h1v1h-1z"/><path d="m11 10h1v1h-1z"/><path d="m11 8h1v1h-1z"/></g><g fill="#4d82b8"><path d="m12 2h1v1h-1z"/><path d="m13 3h1v1h-1z"/><path d="m12 4h1v1h-1z"/><path d="m11 3h1v1h-1z"/><path d="m5 9h1v1h-1z"/><path d="m6 10h1v1h-1z"/><path d="m5 11h1v1h-1z"/><path d="m4 10h1v1h-1z"/></g></svg>