<svg xmlns="http://www.w3.org/2000/svg" viewBox="0 0 16 16"><path fill="#4d82b8" d="m4 7c-.554 0-1 .446-1 1v6c0 .554.446 1 1 1h2c .554 0 1-.446 1-1v-6c0-.554-.446-1-1-1z"/><rect width="4" height="10" x="9" y="5" fill="#eac282" ry="1"/><rect width="1" height="16" x="1" fill="gray" ry=".5"/><rect width="16" height="1" y="14" fill="gray" ry=".5"/><g fill="#e68497"><rect width="1" height="3" x="10" y="1" ry=".5"/><rect width="2" height="1" x="10" y="2" ry=".5"/><rect width="1" height="3" x="4" y="3" ry=".5"/><rect width="2" height="1" x="4" y="4" ry=".5"/></g></svg>