<svg xmlns="http://www.w3.org/2000/svg" width="60" height="52" viewBox="0 0 60 52"><path fill="#fff" d="m0 0h60v52h-60z"/><path fill="#4d82b8" fill-rule="evenodd" d="m28.324219 11.8976-17.226563 23.3047.804688.5957 16.773437-22.6954 20.103516 7.6582-8.714844 15.4942.871094.4902 9.285156-16.5058z"/><path fill="gray" d="m3 45h52v1h-52z"/><path fill="gray" d="m6 3h1v46h-1z"/><g fill="#eac282"><path fill-rule="evenodd" d="m20.089844 8.2159-9.324219 13.4649 23.675781 12.3515 15.1875-4.0488-.257812-.9668-14.8125 3.9492-22.326172-11.6484 8.677734-12.5332z"/><path d="m48 29h1v1h-1z"/><path d="m49 28h1v1h-1z"/><path d="m49 30h1v1h-1z"/><path d="m50 29h1v1h-1z"/></g><path fill="#fff" d="m49 29h1v1h-1z"/><g fill="#eac282"><path d="m33 33h1v1h-1z"/><path d="m34 32h1v1h-1z"/><path d="m34 34h1v1h-1z"/><path d="m35 33h1v1h-1z"/></g><path fill="#fff" d="m34 33h1v1h-1z"/><g fill="#eac282"><path d="m10 21h1v1h-1z"/><path d="m11 20h1v1h-1z"/><path d="m11 22h1v1h-1z"/><path d="m12 21h1v1h-1z"/></g><path fill="#fff" d="m11 21h1v1h-1z"/><g fill="#eac282"><path d="m19 8h1v1h-1z"/><path d="m20 7h1v1h-1z"/><path d="m20 9h1v1h-1z"/><path d="m21 8h1v1h-1z"/></g><path fill="#fff" d="m20 8h1v1h-1z"/><g fill="#4d82b8"><path d="m27 11h1v1h-1z"/><path d="m29 11h1v1h-1z"/><path d="m27 13h1v1h-1z"/><path d="m29 13h1v1h-1z"/></g><path fill="#fff" d="m28 11v1h-1v1h1v1h1v-1h1v-1h-1v-1z"/><g fill="#4d82b8"><path d="m48 19.00002h1v1h-1z"/><path d="m50 19.00002h1v1h-1z"/><path d="m48 21.00002h1v1h-1z"/><path d="m50 21.00002h1v1h-1z"/></g><path fill="#fff" d="m49 19.00002v1h-1v1h1v1h1v-1h1v-1h-1v-1z"/><g fill="#4d82b8"><path d="m39 35.00002h1v1h-1z"/><path d="m41 35.00002h1v1h-1z"/><path d="m39 37.00002h1v1h-1z"/><path d="m41 37.00002h1v1h-1z"/></g><path fill="#fff" d="m40 35.00002v1h-1v1h1v1h1v-1h1v-1h-1v-1z"/><g fill="#4d82b8"><path d="m10 34.00002h1v1h-1z"/><path d="m12 34.00002h1v1h-1z"/><path d="m10 36.00002h1v1h-1z"/><path d="m12 36.00002h1v1h-1z"/></g><path fill="#fff" d="m11 34.00002v1h-1v1h1v1h1v-1h1v-1h-1v-1z"/></svg>