<svg xmlns="http://www.w3.org/2000/svg" width="60" height="52" viewBox="0 0 60 52"><path fill="#fff" d="m0 0h60v52h-60z"/><path fill="gray" d="m3 45h52v1h-52z"/><path fill="gray" d="m6 3h1v46h-1z"/><path fill="#4d82b8" fill-rule="evenodd" d="m32.30664 8.9121-3.99805 2.9981.53907.2246-.0469.043.96875.42.043-.062 19.46484 8.0878h.002l4.86718-3.3808-21.83593-8.3301h-.002-.002z" opacity=".7"/><path fill="#4d82b8" fill-rule="evenodd" d="m28.31055 11.9102h-.002l.53711.2246h.002zm.49218.2675-.3789.3536-16.60742 22.4277-.002.8848 4-3 13.95508-20.2461-.9668-.42zm1.00977.3575 19.54492 8.121-8.42969 16.0586 4.05469-3.1171 9.21094-16.3516-.01.01h-.002l-.0352-.014-4.86718 3.3809h-.002l-19.46484-8.0879z" opacity=".8"/><path fill="none" stroke="#4d82b8" d="m11.5 35.5 17-23 21 8-9 16"/><path fill="#eac282" fill-rule="evenodd" d="m20.08984 8.2168-9.20117 13.2871-.043.043.01.01-.0898.1289 23.60547 12.3144-.0137.014.0254-.01.0586.031 15.1875-4.0489-.008-.027.0449-.012 2.6914-3.1328-14.92969 4.1777-23.35742-12.3262 6.83985-9.8789-.82032-.5683z" opacity=".8"/><path fill="#eac282" fill-rule="evenodd" d="m14.88281 17.4941-.008.01-.79411 1.1845zm-.80273 1.1778-2.37891 3.5019 22.66992 11.8262-.0137.014.0254-.01.0586.031.15039-.041 3.01172-3.0508-.17579.049z" opacity=".7"/><path fill="none" stroke="#eac282" d="m20.5 8.5-9 13 23 12 15-4"/></svg>