<svg xmlns="http://www.w3.org/2000/svg" width="60" height="52" viewBox="0 0 60 52"><path fill="#fff" d="m0 0h60v52h-60z"/><path fill="gray" d="m3 45h52v1h-52z"/><path fill="gray" d="m6 3h1v46h-1z"/><g fill="#eac282"><path d="m11 8h10v1h-10z"/><path d="m11 8h1v14h-1z"/><path d="m34 21h1v13h-1z"/><path d="m49 29h1v5h-1z"/></g><g fill="#4d82b8"><path d="m11 35h17v1h-17z"/><path d="m28 12h1v24h-1z"/><path d="m28 12h22v1h-22z"/><path d="m49 12h1v9h-1z"/><path d="m40 20h10v1h-10z"/><path d="m40 20h1v17h-1z"/></g><g fill-rule="evenodd"><path fill="#4d82b8" d="m28 35h-17l4-3h13z" opacity=".7"/><path fill="#eac282" d="m35 21v12l3-3v-12z" opacity=".8"/><path fill="#4d82b8" d="m29 13v23l3-3v-20z" opacity=".8"/><g fill="#eac282"><path d="m35 21h-23l3-3h23z" opacity=".7"/><path d="m50 29v5l3-3v-5z" opacity=".8"/><path d="m12 9v12l3-3v-9z" opacity=".8"/><path d="m14 5-3 3h10v-3z" opacity=".7"/></g><g fill="#4d82b8"><path d="m50 12h-22l4-3h21z" opacity=".7"/><path d="m49 20h-9l4-3h5z" opacity=".7"/><path d="m50 12v9l3-3v-9z" opacity=".8"/><path d="m41 21v16l3-3v-13z" opacity=".8"/></g></g><g fill="#eac282"><path d="m11 21h24v1h-24z"/><path d="m34 33h16v1h-16z"/><path fill-rule="evenodd" d="m49 33h-14l3-3h11z" opacity=".7"/></g></svg>